<?xml version="1.0" encoding="UTF-8"?>
<svg id="Capa_2" data-name="Capa 2" xmlns="http://www.w3.org/2000/svg" viewBox="0 0 81.36 81.36">
  <defs>
    <style>
      .cls-1 {
        fill: #c9e5e0;
      }

      .cls-1, .cls-2 {
        stroke-width: 0px;
      }

      .cls-2 {
        fill: #23496e;
      }
    </style>
  </defs>
  <g id="Capa_5" data-name="Capa 5">
    <g>
      <rect class="cls-1" width="81.36" height="81.36" rx="21.69" ry="21.69"/>
      <g>
        <path class="cls-2" d="M36.83,32.29c1.63-1.53,3.75-2.37,5.99-2.37,4.82,0,8.74,3.92,8.74,8.74,0,2.23-.84,4.36-2.37,5.99-.96,1.02-.91,2.62.11,3.58.49.46,1.11.69,1.73.69.67,0,1.34-.27,1.84-.8,2.42-2.57,3.75-5.93,3.75-9.46,0-7.61-6.19-13.8-13.8-13.8-3.53,0-6.89,1.33-9.46,3.75-1.02.96-1.07,2.56-.11,3.58.96,1.02,2.56,1.07,3.58.11Z"/>
        <path class="cls-2" d="M23.39,23.89c-.99-.99-2.59-.99-3.58,0-.99.99-.99,2.59,0,3.58l4.64,4.64-4.72-.23c-1.4-.07-2.58,1.01-2.65,2.4-.07,1.4,1.01,2.58,2.4,2.65l10.31.51,3.94,3.94-7.64,2.6-7.98-3.53c-1.28-.56-2.77.01-3.34,1.29-.57,1.28.01,2.77,1.29,3.34l2.95,1.3-4.09,1.39c-1.32.45-2.03,1.89-1.58,3.21.36,1.05,1.34,1.72,2.39,1.72.27,0,.54-.04.81-.14l3.95-1.34-1.25,2.82c-.57,1.28.01,2.77,1.29,3.34.33.15.68.22,1.02.22.97,0,1.9-.56,2.31-1.51l3.13-7.08,7.25-2.47-1.7,7.38-7.91,5.41c-1.15.79-1.45,2.36-.66,3.52.79,1.15,2.36,1.45,3.52.66l3.38-2.31-1.19,5.15c-.31,1.36.53,2.72,1.9,3.03.19.04.38.07.57.07,1.15,0,2.19-.79,2.46-1.96l1.14-4.92,2.18,3.19c.49.72,1.28,1.1,2.09,1.1.49,0,.99-.14,1.43-.44,1.15-.79,1.45-2.36.66-3.52l-4.81-7.04,2.04-8.85,5.32,5.32v8.95c0,1.4,1.13,2.53,2.53,2.53s2.53-1.13,2.53-2.53v-3.9l3.86,3.86c.49.49,1.14.74,1.79.74s1.29-.25,1.79-.74c.99-.99.99-2.59,0-3.58L23.39,23.89Z"/>
        <path class="cls-2" d="M47.19,21.71c.23.06.45.09.68.09,1.11,0,2.12-.73,2.44-1.85l1.34-4.82c.37-1.35-.41-2.74-1.76-3.11-1.34-.37-2.74.41-3.11,1.76l-1.34,4.82c-.37,1.35.41,2.74,1.76,3.11Z"/>
        <path class="cls-2" d="M66.36,43.23l-4.79-1.44c-1.34-.4-2.75.35-3.15,1.69s.35,2.75,1.69,3.15l4.79,1.44c.24.07.49.11.73.11,1.09,0,2.09-.71,2.42-1.8.4-1.34-.35-2.75-1.69-3.15Z"/>
        <path class="cls-2" d="M35.61,20.86c.37,1.03,1.34,1.67,2.38,1.67.29,0,.58-.05.86-.15,1.31-.47,2-1.92,1.52-3.24l-1.7-4.7c-.47-1.31-1.92-2-3.24-1.52-1.31.47-2,1.92-1.52,3.24l1.7,4.7Z"/>
        <path class="cls-2" d="M57.61,34.73c.29,1.14,1.32,1.9,2.45,1.9.21,0,.42-.03.63-.08l4.85-1.24c1.35-.35,2.17-1.72,1.83-3.08-.35-1.35-1.72-2.17-3.08-1.83l-4.85,1.24c-1.35.35-2.17,1.72-1.83,3.08Z"/>
        <path class="cls-2" d="M56.1,28.09c.66,0,1.32-.26,1.82-.77l3.48-3.59c.97-1,.95-2.6-.05-3.58-1-.97-2.6-.95-3.58.05l-3.48,3.59c-.97,1-.95,2.6.05,3.58.49.48,1.13.72,1.76.72Z"/>
        <path class="cls-2" d="M28.1,26.11c.49.49,1.13.73,1.78.73s1.31-.25,1.8-.75c.98-.99.97-2.6-.02-3.58l-3.56-3.51c-.99-.98-2.6-.97-3.58.02-.98.99-.97,2.6.02,3.58l3.56,3.51Z"/>
        <path class="cls-2" d="M58.27,49.18c-.99-.98-2.6-.97-3.58.02-.98.99-.97,2.6.02,3.58l3.56,3.51c.49.49,1.13.73,1.78.73s1.31-.25,1.8-.75c.98-.99.97-2.6-.02-3.58l-3.56-3.51Z"/>
      </g>
    </g>
  </g>
</svg>