<?xml version="1.0" encoding="UTF-8"?>
<svg id="_2" data-name="2" xmlns="http://www.w3.org/2000/svg" viewBox="0 0 495 500">
  <defs>
    <style>
      .cls-1 {
        fill: #218e7b;
      }

      .cls-1, .cls-2, .cls-3 {
        stroke-width: 0px;
      }

      .cls-2 {
        fill: #5b8da7;
      }

      .cls-3 {
        fill: #23496e;
      }
    </style>
  </defs>
  <polygon class="cls-3" points="183.93 427.24 288.06 359.97 394.96 198.39 423.81 198.39 317.54 373.56 183.93 427.24"/>
  <g>
    <polygon class="cls-2" points="183.3 427.49 182.04 428 183.57 428 183.3 427.49"/>
    <polygon class="cls-2" points="423.24 199.32 423.24 199.32 317.54 373.56 254.41 398.92 317.54 373.56 423.24 199.32"/>
    <polygon class="cls-2" points="427.27 206.17 323.52 377.19 322.31 379.19 320.15 380.06 200.82 428 350.27 428 453.04 250 427.27 206.17"/>
  </g>
  <polygon class="cls-3" points="311.07 72.76 206.94 140.03 100.04 301.61 71.19 301.61 177.46 126.44 311.07 72.76"/>
  <g>
    <polygon class="cls-2" points="311.7 72.51 312.96 72 311.43 72 311.7 72.51"/>
    <polygon class="cls-2" points="71.76 300.68 177.46 126.44 71.76 300.68 71.76 300.68"/>
    <polygon class="cls-2" points="177.46 126.44 311.07 72.76 311.07 72.76 177.46 126.44"/>
    <polygon class="cls-2" points="171.48 122.81 172.69 120.81 174.85 119.94 294.18 72 144.73 72 41.96 250 67.73 293.83 171.48 122.81"/>
  </g>
  <polygon class="cls-1" points="290.53 160.42 190.68 257.29 230.42 257.92 177.8 339.72 308.75 232.92 261.24 231.54 290.53 160.42"/>
</svg>