<svg width="328" height="340" viewBox="0 0 328 340" fill="none" xmlns="http://www.w3.org/2000/svg">
<path d="M244.861 137.889C228.689 120.681 196.344 120.681 164 120.681C131.656 120.681 99.3111 120.681 83.1389 137.889C58.876 163.701 34.6222 229.689 50.7944 281.312C66.9667 332.936 137.869 338.243 164 338.243C190.131 338.243 261.033 332.936 277.206 281.312C293.378 229.698 269.124 163.701 244.861 137.889Z" fill="#CEC833"/>
<path d="M233.062 136.113C219.25 121.418 191.625 121.418 164 121.418C136.375 121.418 108.75 121.418 94.9378 136.113C74.2191 158.157 53.5005 214.521 67.3129 258.598C81.1254 302.685 141.678 307.218 164 307.218C186.322 307.218 246.875 302.685 260.678 258.598C274.49 214.512 253.781 158.157 233.062 136.113Z" fill="#CEC833" fill-opacity="0.784314"/>
<path d="M250.127 123.014C246.638 107.752 229.509 93.075 164.146 93.075H163.854C98.482 93.075 81.3531 107.752 77.8727 123.014C71.1942 152.226 98.4911 163.417 163.854 163.417H164.146C229.509 163.408 256.806 152.226 250.127 123.014Z" fill="#33A0CE"/>
<path d="M233.445 116.686C236.114 123.486 216.753 132.345 163.836 132.345C110.919 132.345 91.512 123.458 94.2271 116.686C97.17 109.329 129.478 102.047 163.836 102.047C198.194 102.047 230.566 109.329 233.445 116.686Z" fill="#2E7CB4"/>
<path d="M100.158 124.138C109.406 128.605 129.551 132.345 163.845 132.345C198.167 132.345 218.293 128.614 227.532 124.138C220.844 118.141 202.385 112.143 163.845 112.143C125.305 112.153 106.846 118.141 100.158 124.138Z" fill="#33CE8D"/>
<path d="M227.778 134.404C226.356 130.399 223.869 130.692 220.361 131.797C204.153 136.869 180.637 137.851 163.772 137.955C146.908 137.851 121.169 136.425 107.183 131.797C103.684 130.645 100.796 130.173 99.3293 134.404C97.908 138.522 102.117 142.451 105.68 143.348C127.237 148.788 144.976 150.393 163.772 150.516C182.559 150.393 198.076 149.014 219.632 143.574C223.204 142.668 229.427 139.079 227.778 134.404Z" fill="#33A0CE"/>
<path d="M208.59 129.257L257.015 54.3622L305.268 19.0117C305.268 19.0117 306.552 16.2067 298.161 9.4728C289.77 2.73891 285.98 5.54391 285.98 5.54391L244.542 39.7045L185.393 131.278C193.147 130.902 200.884 130.228 208.59 129.257Z" fill="black"/>
<path d="M208.59 129.257L257.015 54.3622L305.268 19.0117L304.657 18.1711L251.886 48.4689L199.041 130.39C202.968 130.069 204.827 129.823 208.59 129.257Z" fill="#262626" fill-opacity="0.4"/>
<path d="M251.622 62.4561C260.015 62.4561 266.819 55.4031 266.819 46.7028C266.819 38.0025 260.015 30.9495 251.622 30.9495C243.228 30.9495 236.424 38.0025 236.424 46.7028C236.424 55.4031 243.228 62.4561 251.622 62.4561Z" fill="#262626"/>
<path d="M238.83 43.8128C238.83 40.6517 240.041 37.6201 242.197 35.3849C244.354 33.1496 247.278 31.8939 250.328 31.8939C253.377 31.8939 256.302 33.1496 258.458 35.3849C260.615 37.6201 261.826 40.6517 261.826 43.8128C261.826 46.9739 260.615 50.0055 258.458 52.2407C256.302 54.4759 253.377 55.7317 250.328 55.7317C247.278 55.7317 244.354 54.4759 242.197 52.2407C240.041 50.0055 238.83 46.9739 238.83 43.8128Z" fill="black"/>
<path d="M104.404 102.614C119.018 96.5789 145.805 95.0394 155.144 95.4644C164.483 95.8894 160.346 102.614 155.007 102.614C139.582 102.614 120.504 106.401 107.374 109.905C99.6209 111.973 96.9604 105.683 104.404 102.614Z" fill="#33A0CE"/>
</svg>
