<?xml version="1.0" encoding="UTF-8"?>
<svg id="Capa_5" data-name="Capa 5" xmlns="http://www.w3.org/2000/svg" viewBox="0 0 1920 1274.18">
  <defs>
    <style>
      .cls-1 {
        fill: #238e7c;
      }

      .cls-1, .cls-2 {
        stroke-width: 0px;
      }

      .cls-3 {
        stroke: rgba(19, 116, 104, .54);
      }

      .cls-3, .cls-4, .cls-5, .cls-6, .cls-7, .cls-8 {
        fill: none;
      }

      .cls-3, .cls-4, .cls-5, .cls-6, .cls-7, .cls-8, .cls-9 {
        stroke-width: 1.89px;
      }

      .cls-4, .cls-9 {
        stroke: #5c8da8;
      }

      .cls-5 {
        stroke: rgba(36, 74, 111, .62);
      }

      .cls-6 {
        stroke: rgba(66, 101, 133, .56);
      }

      .cls-2 {
        fill: #c9e5e0;
      }

      .cls-7 {
        stroke: rgba(19, 116, 104, .6);
      }

      .cls-8 {
        stroke: rgba(19, 116, 104, .46);
      }

      .cls-9 {
        fill: rgba(1, 1, 1, 0);
      }

      .cls-10 {
        opacity: .3;
      }
    </style>
  </defs>
  <rect class="cls-2" y="2.88" width="1920" height="1268.42"/>
  <g id="g1" class="cls-10">
    <path id="path2" class="cls-4" d="M2070.77,194.71c-92.21,195.17-135.78,390.34-289.5,585.51,101.57-13.44,205.82-56.44,299.26,19.52"/>
    <path id="path3" class="cls-3" d="M2090.29,1381.99c-65.34-214.31-107.59-437.28-305.77-601.78C1708.44,519.99,1621.57,259.76,1654.41-.46"/>
    <path id="path4" class="cls-8" d="M893.24,6.04c152.93,194.15,253.82,499.8,461.9,575.75,121.26,249.34,281.33,172.33,435.88,198.42"/>
    <path id="path5" class="cls-4" d="M1010.34,2.79c326.37,221.91,652.74,280.62,979.1,370.82"/>
    <path id="path6" class="cls-4" d="M841.2-.46c13.77,362.32,88.21,705.68,240.71,1024.64,106.08-96.58,185.87-285.17,276.49-435.88-83.47,259.46-135.6,513.62-149.63,764.42-11.38-118.02-33.18-232.93-130.11-325.28"/>
    <path id="path7" class="cls-4" d="M2025.23,1255.13c-182.71-31.2-344.21-2.3-474.91,113.85-124.54-202.31-303.24-252.98-468.41-341.55"/>
    <path id="path8" class="cls-4" d="M831.44-3.72c-100.53,397.16-144.01,851.36-338.3,1154.76,343.07,140.88,699.9,144.2,1050.67,208.18"/>
    <path id="path9" class="cls-6" d="M473.63,1154.29C234.06,995.19,136.05,716.3,1.96,467.94,243.76,436.59,485.55,230.12,727.35-6.97"/>
    <path id="path10" class="cls-7" d="M8.47,474.45C47.9,314.49,77.38,152.54,200.39,9.29"/>
    <path id="path11" class="cls-4" d="M-355.85,58.09C-249.19,195.76-207.75,338.1,8.47,467.94c-87.38,214.05-215.14,387.72-380.58,523.71"/>
    <path id="path12" class="cls-4" d="M8.47,480.96c54.16,433.04-111.55,899.41-126.86,1340.17l598.52-670.09c260.27,177.76,475.04,362.35,562.74,565.99,123.59,45.58,264.58,43.33,422.87-6.51,88.91-117.1,62.37-234.2,81.32-351.31,64.85,234.2,200.15,468.41,156.14,702.61-64.73-155.56-146.77-264.96-237.46-351.31-149.23,216.58-290.75,448.57-481.42,582.26l-283,156.14"/>
    <path id="path19" class="cls-4" d="M-359.1,750.94C-210.06,824.1-61.56,923.6-14.3,1186.82c-175.23,63.97-267.77,173.87-367.57,279.74,124.7,298.65,293.49,577.71,348.05,907.54-46.09-140.96-58.52-281.91,16.26-422.87-131.84.84-241.08-66.12-338.3-169.15,38.59,240.01,56.02,491.92,227.7,657.07l357.81,9.76-266.73-78.07,172.4-165.89c-2.64,80.33,26.91,158.66-107.34,247.22"/>
    <path id="path20" class="cls-9" d="M-368.86,1248.63l78.07,146.38c48.48,149.48,171.12,191.84,296.01,230.95l-367.57,149.63,3.25-104.09,237.46,143.12"/>
    <path id="path21" class="cls-5" d="M1765,2198.46c99.75-21.63,199.51-29.76,299.26,68.31-78-339.38-108.07-678.76-39.03-1018.14"/>
    <polygon id="polygon1" class="cls-1" points="1373.05 580.01 1399.61 515.53 1309.09 603.36 1345.12 603.92 1297.42 678.07 1416.13 581.26 1373.05 580.01"/>
    <polygon id="polygon21" class="cls-1" points="1828.98 697.69 1738.47 785.52 1774.49 786.08 1726.79 860.23 1845.5 763.42 1802.43 762.17 1828.98 697.69"/>
    <polygon id="polygon22" class="cls-1" points="1930.39 378.91 1966.41 379.47 1918.71 453.63 2037.42 356.81 1994.35 355.57 2020.9 291.09 1930.39 378.91"/>
    <polygon id="polygon23" class="cls-1" points="1071.88 1036.55 1024.18 1110.7 1142.89 1013.89 1099.82 1012.64 1126.37 948.16 1035.86 1035.99 1071.88 1036.55"/>
    <polygon id="polygon25" class="cls-1" points="1259.99 1329.41 1216.92 1328.17 1243.47 1263.69 1152.96 1351.51 1188.98 1352.07 1141.28 1426.23 1259.99 1329.41"/>
    <polygon id="polygon26" class="cls-1" points="504.55 1142.76 531.1 1078.28 440.59 1166.1 476.61 1166.66 428.91 1240.81 547.62 1144 504.55 1142.76"/>
    <polygon id="polygon27" class="cls-1" points="-1.56 477.06 -49.26 551.21 69.45 454.4 26.38 453.15 52.93 388.67 -37.58 476.5 -1.56 477.06"/>
    <polygon id="polygon28" class="cls-1" points="-91.55 1270.09 27.17 1173.27 -15.91 1172.03 10.64 1107.55 -79.87 1195.38 -43.84 1195.93 -91.55 1270.09"/>
  </g>
</svg>