<?xml version="1.0" encoding="UTF-8"?>
<svg id="_2" data-name="2" xmlns="http://www.w3.org/2000/svg" viewBox="0 0 495 500">
  <defs>
    <style>
      .cls-1 {
        fill: #000;
        stroke-width: 0px;
      }
    </style>
  </defs>
  <g>
    <g>
      <path class="cls-1" d="M304.32,368.85v12.82h-12.82v39.05h-13.26v-39.05h-12.82v-12.82h38.9Z"/>
      <path class="cls-1" d="M313.28,406.71c1.23,3.01,4,4.52,8.3,4.52,2.67,0,4.91-.86,6.74-2.59l8.89,6.22c-3.66,4.59-8.97,6.89-15.93,6.89-6.27,0-11.3-1.84-15.08-5.52-3.78-3.68-5.67-8.34-5.67-13.97s1.85-10.25,5.56-14c3.71-3.75,8.42-5.63,14.15-5.63s10.1,1.85,13.71,5.56c3.6,3.7,5.41,8.35,5.41,13.93,0,1.63-.17,3.16-.52,4.59h-25.56ZM313.14,398.19h14.23c-.99-3.46-3.31-5.19-6.96-5.19s-6.22,1.73-7.26,5.19Z"/>
      <path class="cls-1" d="M362.41,421.75c-5.63,0-10.32-1.88-14.08-5.63-3.75-3.75-5.63-8.4-5.63-13.93s1.88-10.18,5.63-13.93,8.45-5.63,14.08-5.63c3.66,0,6.98.87,9.97,2.59,2.99,1.73,5.3,4.05,6.93,6.96l-10.52,6.08c-1.33-2.42-3.48-3.63-6.45-3.63-2.07,0-3.8.7-5.19,2.11-1.38,1.41-2.07,3.22-2.07,5.45s.69,4.04,2.07,5.45c1.38,1.41,3.11,2.11,5.19,2.11,3.06,0,5.21-1.23,6.45-3.71l10.52,6.08c-1.63,2.96-3.94,5.31-6.93,7.04-2.99,1.73-6.31,2.59-9.97,2.59Z"/>
      <path class="cls-1" d="M405.83,382.63c4,0,7.27,1.37,9.82,4.11,2.54,2.74,3.82,6.68,3.82,11.82v22.15h-12.3v-20.6c0-1.93-.51-3.38-1.52-4.37-1.01-.99-2.36-1.48-4.04-1.48-1.93,0-3.42.58-4.48,1.74-1.06,1.16-1.59,2.83-1.59,5v19.71h-12.3v-51.87h12.3v18.52c2.22-3.16,5.66-4.74,10.3-4.74Z"/>
    </g>
    <g>
      <path class="cls-1" d="M96.88,420.79c-7.81,0-14.26-2.58-19.38-7.74-5.11-5.16-7.67-11.6-7.67-19.3s2.56-14.14,7.67-19.3c5.11-5.16,11.57-7.74,19.38-7.74,4.69,0,9.04,1.11,13.04,3.33s7.14,5.21,9.41,8.97l-11.49,6.59c-.99-1.83-2.46-3.27-4.41-4.33-1.95-1.06-4.14-1.59-6.56-1.59-4.15,0-7.5,1.3-10.04,3.89s-3.82,5.99-3.82,10.19,1.27,7.59,3.82,10.19,5.89,3.89,10.04,3.89c2.42,0,4.61-.53,6.56-1.59,1.95-1.06,3.42-2.53,4.41-4.41l11.49,6.67c-2.27,3.8-5.4,6.81-9.37,9-3.98,2.2-8.34,3.3-13.08,3.3Z"/>
      <path class="cls-1" d="M124.22,419.68v-54.09h12.3v54.09h-12.3Z"/>
      <path class="cls-1" d="M154.78,377.48c-1.41,1.41-3.08,2.11-5,2.11s-3.59-.7-5-2.11c-1.41-1.41-2.11-3.07-2.11-5s.7-3.58,2.11-4.96,3.08-2.08,5-2.08,3.59.69,5,2.08c1.41,1.38,2.11,3.04,2.11,4.96s-.7,3.59-2.11,5ZM143.63,419.68v-37.05h12.3v37.05h-12.3Z"/>
      <path class="cls-1" d="M205.57,381.6c4.3,0,7.69,1.37,10.19,4.11,2.49,2.74,3.74,6.51,3.74,11.3v22.67h-12.37v-21.27c0-3.46-1.53-5.19-4.59-5.19-1.68,0-2.95.56-3.82,1.67-.87,1.11-1.3,2.63-1.3,4.56v20.23h-12.3v-21.27c0-3.46-1.56-5.19-4.67-5.19-1.68,0-2.95.56-3.82,1.67-.87,1.11-1.3,2.63-1.3,4.56v20.23h-12.3v-37.05h12.3v3.48c2.27-3.01,5.61-4.52,10-4.52s7.41,1.58,9.48,4.74c2.57-3.16,6.15-4.74,10.74-4.74Z"/>
      <path class="cls-1" d="M252.25,382.63h12.3v37.05h-12.3v-3.41c-2.52,2.96-6.03,4.45-10.52,4.45-4.94,0-9.08-1.86-12.41-5.59-3.33-3.73-5-8.38-5-13.97s1.67-10.24,5-13.97c3.33-3.73,7.47-5.59,12.41-5.59,4.49,0,8,1.48,10.52,4.45v-3.41ZM238.84,407.01c1.43,1.48,3.31,2.22,5.63,2.22s4.2-.74,5.63-2.22c1.43-1.48,2.15-3.43,2.15-5.85s-.72-4.37-2.15-5.85c-1.43-1.48-3.31-2.22-5.63-2.22s-4.2.74-5.63,2.22c-1.43,1.48-2.15,3.43-2.15,5.85s.71,4.37,2.15,5.85Z"/>
    </g>
  </g>
  <g>
    <polygon class="cls-1" points="211.37 326.75 285.81 278.66 362.23 163.14 382.86 163.14 306.88 288.37 211.37 326.75"/>
    <g>
      <polygon class="cls-1" points="210.92 326.93 210.02 327.29 211.11 327.29 210.92 326.93"/>
      <polygon class="cls-1" points="382.45 163.81 382.45 163.81 306.88 288.37 261.75 306.5 306.88 288.37 382.45 163.81"/>
      <polygon class="cls-1" points="385.33 168.71 311.16 290.97 310.3 292.39 308.75 293.01 223.44 327.29 330.28 327.29 403.75 200.04 385.33 168.71"/>
    </g>
    <polygon class="cls-1" points="302.26 73.33 227.82 121.42 151.4 236.94 130.77 236.94 206.74 111.7 302.26 73.33"/>
    <g>
      <polygon class="cls-1" points="302.71 73.15 303.61 72.78 302.52 72.78 302.71 73.15"/>
      <polygon class="cls-1" points="131.18 236.27 206.74 111.7 131.18 236.27 131.18 236.27"/>
      <polygon class="cls-1" points="206.74 111.7 302.26 73.33 302.26 73.33 206.74 111.7"/>
      <polygon class="cls-1" points="202.46 109.11 203.33 107.68 204.88 107.06 290.19 72.78 183.34 72.78 109.87 200.04 128.29 231.37 202.46 109.11"/>
    </g>
    <polygon class="cls-1" points="287.58 135.99 216.19 205.25 244.6 205.7 206.98 264.18 300.6 187.82 266.64 186.84 287.58 135.99"/>
  </g>
</svg>