<?xml version="1.0" encoding="UTF-8"?>
<svg id="_2" data-name="2" xmlns="http://www.w3.org/2000/svg" viewBox="0 0 495 500">
  <defs>
    <style>
      .cls-1 {
        fill: #000;
        stroke-width: 0px;
      }
    </style>
  </defs>
  <polygon class="cls-1" points="183.48 427.42 182.04 428 183.78 428 183.48 427.42"/>
  <g>
    <polygon class="cls-1" points="183.93 427.31 288.06 360.04 394.96 198.45 423.81 198.45 317.54 373.63 183.93 427.31"/>
    <g>
      <polygon class="cls-1" points="183.3 427.56 182.04 428.07 183.57 428.07 183.3 427.56"/>
      <polygon class="cls-1" points="423.24 199.39 423.24 199.39 317.54 373.63 254.41 398.99 317.54 373.63 423.24 199.39"/>
      <polygon class="cls-1" points="427.27 206.24 323.52 377.26 322.31 379.25 320.15 380.12 200.82 428.07 350.27 428.07 453.04 250.07 427.27 206.24"/>
    </g>
    <polygon class="cls-1" points="311.07 72.82 206.94 140.1 100.04 301.68 71.19 301.68 177.46 126.51 311.07 72.82"/>
    <g>
      <polygon class="cls-1" points="311.7 72.57 312.96 72.07 311.43 72.07 311.7 72.57"/>
      <polygon class="cls-1" points="71.76 300.75 177.46 126.51 71.76 300.75 71.76 300.75"/>
      <polygon class="cls-1" points="177.46 126.51 311.07 72.82 311.07 72.82 177.46 126.51"/>
      <polygon class="cls-1" points="171.48 122.88 172.69 120.88 174.85 120.01 294.18 72.07 144.73 72.07 41.96 250.07 67.73 293.89 171.48 122.88"/>
    </g>
    <polygon class="cls-1" points="290.53 160.48 190.68 257.36 230.42 257.98 177.8 339.78 308.75 232.98 261.24 231.61 290.53 160.48"/>
  </g>
</svg>