<svg width="310" height="68" viewBox="0 0 310 68" fill="none" xmlns="http://www.w3.org/2000/svg">
<path d="M13.2188 46.3691C10.7578 46.3691 8.58984 45.8652 6.71484 44.8574C4.83984 43.8379 3.38086 42.3848 2.33789 40.498C1.29492 38.6113 0.773438 36.3496 0.773438 33.7129V32.7109C0.773438 30.2383 1.26562 28.0527 2.25 26.1543C3.23438 24.2441 4.63477 22.75 6.45117 21.6719C8.2793 20.582 10.4473 20.0371 12.9551 20.0371C14.7129 20.0371 16.3711 20.2773 17.9297 20.7578C19.5 21.2383 20.9238 22.0176 22.2012 23.0957V29.4766H18.0703L17.5078 25.6445C17.1094 25.375 16.6875 25.1406 16.2422 24.9414C15.7969 24.7422 15.3164 24.5898 14.8008 24.4844C14.2852 24.3789 13.7285 24.3262 13.1309 24.3262C11.748 24.3262 10.5527 24.6602 9.54492 25.3281C8.53711 25.9961 7.75781 26.9512 7.20703 28.1934C6.65625 29.4355 6.38086 30.9297 6.38086 32.6758V33.7129C6.38086 35.4004 6.66211 36.877 7.22461 38.1426C7.79883 39.3965 8.60742 40.3691 9.65039 41.0605C10.6934 41.752 11.9062 42.0977 13.2891 42.0977C14.0156 42.0977 14.7422 42.0215 15.4688 41.8691C16.1953 41.7051 16.875 41.4941 17.5078 41.2363L18.0879 37.6328H22.2188V43.8906C21.2109 44.5703 19.9395 45.1562 18.4043 45.6484C16.8809 46.1289 15.1523 46.3691 13.2188 46.3691ZM24.1172 46V42.6777L26.4902 42.1328V22.4629L23.7656 21.918V18.5781H32.1152V42.1328L34.4707 42.6777V46H24.1172Z" fill="#33A0CE"/>
<path d="M53.2266 46V42.6777L55.916 42.1328V24.291L53.2266 23.7461V20.4062H55.916H64.3887L70.9805 37.7734H71.0859L77.502 20.4062H88.5938V23.7461L85.8867 24.291V42.1328L88.5938 42.6777V46H77.5898V42.6777L80.4023 42.1328V37.9668L80.5078 26.1895L80.4023 26.1719L72.9492 45.8242H68.6074L61.0137 26.3652L60.8906 26.3828L61.2598 37.2988V42.1328L64.248 42.6777V46H53.2266ZM96.7148 46.3691C94.8398 46.3691 93.334 45.8594 92.1973 44.8398C91.0723 43.8086 90.5098 42.4199 90.5098 40.6738C90.5098 39.4902 90.8262 38.4414 91.459 37.5273C92.1035 36.6133 93.0645 35.8984 94.3418 35.3828C95.6191 34.8672 97.207 34.6094 99.1055 34.6094H101.373V33.3438C101.373 32.5 101.127 31.8027 100.635 31.252C100.154 30.7012 99.416 30.4258 98.4199 30.4258C97.9395 30.4258 97.5 30.4844 97.1016 30.6016C96.7148 30.7188 96.3574 30.8887 96.0293 31.1113L95.625 33.5723H91.6172L91.5469 28.4746C92.5781 27.9473 93.6797 27.5078 94.8516 27.1562C96.0234 26.8047 97.3242 26.6289 98.7539 26.6289C101.297 26.6289 103.307 27.2148 104.783 28.3867C106.26 29.5586 106.998 31.2285 106.998 33.3965V40.8496C106.998 41.1191 106.998 41.3828 106.998 41.6406C107.01 41.8867 107.039 42.127 107.086 42.3613L109.09 42.6777V46H102.34C102.199 45.7305 102.053 45.4141 101.9 45.0508C101.748 44.6875 101.643 44.3242 101.584 43.9609C100.986 44.6992 100.301 45.2852 99.5273 45.7188C98.7539 46.1523 97.8164 46.3691 96.7148 46.3691ZM98.332 42.3086C98.918 42.3086 99.4863 42.1797 100.037 41.9219C100.588 41.6641 101.033 41.3125 101.373 40.8672V37.9844H99.1406C98.1562 37.9844 97.4004 38.207 96.873 38.6523C96.3574 39.0977 96.0996 39.6484 96.0996 40.3047C96.0996 40.9375 96.2988 41.4297 96.6973 41.7812C97.1074 42.1328 97.6523 42.3086 98.332 42.3086ZM117.562 46.3867C115.688 46.3867 114.252 45.8828 113.256 44.875C112.26 43.8555 111.762 42.2441 111.762 40.041V30.9004H109.266V26.9805H111.762V22.3047H117.352V26.9805H120.674V30.9004H117.352V40.0234C117.352 40.7031 117.498 41.1895 117.791 41.4824C118.096 41.7637 118.506 41.9043 119.021 41.9043C119.279 41.9043 119.543 41.8867 119.812 41.8516C120.082 41.8164 120.328 41.7812 120.551 41.7461L120.973 45.877C120.445 46.0293 119.889 46.1523 119.303 46.2461C118.729 46.3398 118.148 46.3867 117.562 46.3867ZM131.572 46.3691C129.732 46.3691 128.127 45.9707 126.756 45.1738C125.385 44.3652 124.318 43.2637 123.557 41.8691C122.807 40.4629 122.432 38.8691 122.432 37.0879V36.4023C122.432 34.5039 122.777 32.8164 123.469 31.3398C124.16 29.8633 125.156 28.709 126.457 27.877C127.758 27.0332 129.316 26.6172 131.133 26.6289C132.855 26.6289 134.309 26.9629 135.492 27.6309C136.676 28.2988 137.572 29.2773 138.182 30.5664C138.803 31.8438 139.113 33.4023 139.113 35.2422V38.2305H128.268L128.25 38.3359C128.32 39.0625 128.52 39.707 128.848 40.2695C129.188 40.8203 129.65 41.2598 130.236 41.5879C130.834 41.916 131.561 42.0801 132.416 42.0801C133.295 42.0801 134.127 41.9746 134.912 41.7637C135.709 41.5527 136.512 41.2246 137.32 40.7793L138.727 44.207C137.906 44.8281 136.887 45.3438 135.668 45.7539C134.461 46.1641 133.096 46.3691 131.572 46.3691ZM128.285 34.627H133.91V34.1699C133.91 33.4434 133.822 32.8281 133.646 32.3242C133.482 31.8086 133.201 31.416 132.803 31.1465C132.416 30.877 131.9 30.7422 131.256 30.7422C130.6 30.7422 130.061 30.9062 129.639 31.2344C129.217 31.5625 128.895 32.0137 128.672 32.5879C128.461 33.1621 128.314 33.8125 128.232 34.5391L128.285 34.627Z" fill="#33CE8D"/>
<path d="M140.906 46V42.6777L142.734 42.4141L150.627 20.4062H156.551L164.426 42.4141L166.236 42.6777V46H157.131V42.6777L158.854 42.3613L157.887 39.1973H149.256L148.324 42.3613L150.047 42.6777V46H140.906ZM150.521 35.1543H156.621L153.879 26.8574L153.615 26.0312H153.51L153.229 26.9277L150.521 35.1543ZM168.381 46V42.6777L170.719 42.1328V30.8652L168.047 30.3203V26.9805H175.992L176.168 29.3184L176.203 29.7754C176.648 28.709 177.199 27.918 177.855 27.4023C178.512 26.8867 179.32 26.6289 180.281 26.6289C180.562 26.6289 180.879 26.6523 181.23 26.6992C181.594 26.7461 181.934 26.8164 182.25 26.9102L181.67 32.0781L179.086 31.9551C178.406 31.9199 177.867 32.0137 177.469 32.2363C177.07 32.459 176.695 32.7988 176.344 33.2559V42.1328L178.699 42.6777V46H168.381Z" fill="#CEC833"/>
<path d="M45.2445 44.8968L47.4814 19.7074L55.1525 3.97426C55.1525 3.97426 55.0984 3.11091 51.9796 2.77507C48.8607 2.43923 48.2621 3.68179 48.2621 3.68179L42.2014 18.0997L39.482 48.8896C41.4498 47.6266 43.3719 46.2947 45.2445 44.8968Z" fill="#262626"/>
<path d="M45.2444 44.8969L47.4814 19.7074L55.1524 3.97428L54.877 3.86622L45.3287 19.0783L42.9142 46.6123C43.8926 45.9414 44.3428 45.6015 45.2444 44.8969Z" fill="black"/>
<path d="M47.1979 22.4539C49.3842 21.1836 50.1794 18.4719 48.9739 16.3971C47.7683 14.3223 45.0187 13.6701 42.8324 14.9404C40.6461 16.2107 39.8509 18.9224 41.0564 20.9972C42.2619 23.072 45.0116 23.7242 47.1979 22.4539Z" fill="black"/>
<path d="M41.2826 19.944C40.8446 19.1902 40.7401 18.2839 40.9921 17.4245C41.2441 16.5651 41.8319 15.823 42.6262 15.3614C43.4206 14.8999 44.3564 14.7567 45.2278 14.9634C46.0992 15.1701 46.8348 15.7097 47.2728 16.4635C47.7108 17.2174 47.8153 18.1237 47.5633 18.9831C47.3114 19.8425 46.7235 20.5846 45.9292 21.0461C45.1348 21.5076 44.199 21.6508 43.3276 21.4441C42.4562 21.2374 41.7206 20.6978 41.2826 19.944Z" fill="#262626"/>
<path d="M47.1979 22.4539C49.3842 21.1836 50.1794 18.4719 48.9739 16.3971C47.7683 14.3223 45.0187 13.6701 42.8324 14.9404C40.6461 16.2107 39.8509 18.9224 41.0564 20.9972C42.2619 23.072 45.0116 23.7242 47.1979 22.4539Z" fill="black"/>
<path d="M41.2826 19.944C40.8446 19.1902 40.7401 18.2839 40.9921 17.4245C41.2441 16.5651 41.8319 15.823 42.6262 15.3614C43.4206 14.8999 44.3564 14.7567 45.2278 14.9634C46.0992 15.1701 46.8348 15.7097 47.2728 16.4635C47.7108 17.2174 47.8153 18.1237 47.5633 18.9831C47.3114 19.8425 46.7235 20.5846 45.9292 21.0461C45.1348 21.5076 44.199 21.6508 43.3276 21.4441C42.4562 21.2374 41.7206 20.6978 41.2826 19.944Z" fill="#262626"/>
</svg>
