<?xml version="1.0" encoding="UTF-8"?>
<svg id="Capa_2" data-name="Capa 2" xmlns="http://www.w3.org/2000/svg" viewBox="0 0 365.4 55.06">
  <defs>
    <style>
      .cls-1 {
        fill: #218e7b;
      }

      .cls-1, .cls-2 {
        stroke-width: 0px;
      }

      .cls-2 {
        fill: #23496e;
      }
    </style>
  </defs>
  <g id="_2" data-name="2">
    <g>
      <polygon class="cls-1" points="213.7 15.86 193.05 35.91 201.27 36.03 190.38 52.96 217.47 30.86 207.64 30.58 213.7 15.86"/>
      <g>
        <g>
          <path class="cls-2" d="M252.82,3.33v12.53h-12.53v38.18h-12.97V15.86h-12.53V3.33h38.03Z"/>
          <path class="cls-2" d="M261.59,40.35c1.21,2.95,3.91,4.42,8.11,4.42,2.61,0,4.8-.84,6.59-2.54l8.69,6.08c-3.57,4.49-8.77,6.74-15.58,6.74-6.13,0-11.05-1.8-14.74-5.4-3.69-3.6-5.54-8.15-5.54-13.66s1.81-10.02,5.43-13.69c3.62-3.67,8.23-5.51,13.84-5.51s9.88,1.81,13.4,5.43c3.52,3.62,5.29,8.16,5.29,13.62,0,1.59-.17,3.09-.51,4.49h-24.99ZM261.44,32.02h13.91c-.97-3.38-3.24-5.07-6.81-5.07s-6.08,1.69-7.1,5.07Z"/>
          <path class="cls-2" d="M309.62,55.06c-5.51,0-10.09-1.83-13.76-5.51-3.67-3.67-5.51-8.21-5.51-13.62s1.84-9.95,5.51-13.62,8.26-5.51,13.76-5.51c3.57,0,6.82.85,9.74,2.54,2.92,1.69,5.18,3.96,6.77,6.81l-10.29,5.94c-1.3-2.37-3.4-3.55-6.3-3.55-2.03,0-3.72.69-5.07,2.06-1.35,1.38-2.03,3.15-2.03,5.32s.68,3.95,2.03,5.32c1.35,1.38,3.04,2.07,5.07,2.07,2.99,0,5.09-1.21,6.3-3.62l10.29,5.94c-1.59,2.9-3.85,5.19-6.77,6.88-2.92,1.69-6.17,2.54-9.74,2.54Z"/>
          <path class="cls-2" d="M352.07,16.81c3.91,0,7.11,1.34,9.6,4.02,2.49,2.68,3.73,6.53,3.73,11.56v21.66h-12.03v-20.14c0-1.88-.5-3.31-1.49-4.27-.99-.97-2.31-1.45-3.95-1.45-1.88,0-3.34.57-4.38,1.7-1.04,1.14-1.56,2.77-1.56,4.89v19.27h-12.03V3.33h12.03v18.11c2.17-3.09,5.53-4.64,10.07-4.64Z"/>
        </g>
        <g>
          <path class="cls-2" d="M26.44,54.12c-7.63,0-13.94-2.52-18.94-7.57C2.5,41.5,0,35.21,0,27.67S2.5,13.85,7.5,8.8C12.5,3.76,18.81,1.23,26.44,1.23c4.59,0,8.84,1.09,12.75,3.26s6.98,5.1,9.2,8.77l-11.23,6.45c-.97-1.79-2.4-3.2-4.31-4.24-1.91-1.04-4.05-1.56-6.41-1.56-4.06,0-7.33,1.27-9.82,3.8s-3.73,5.86-3.73,9.96,1.24,7.43,3.73,9.96,5.76,3.8,9.82,3.8c2.37,0,4.5-.52,6.41-1.56,1.91-1.04,3.34-2.47,4.31-4.31l11.23,6.52c-2.22,3.72-5.28,6.65-9.16,8.8-3.89,2.15-8.15,3.22-12.79,3.22Z"/>
          <path class="cls-2" d="M53.18,53.03V.15h12.03v52.88h-12.03Z"/>
          <path class="cls-2" d="M83.06,11.77c-1.38,1.38-3.01,2.07-4.89,2.07s-3.51-.69-4.89-2.07c-1.38-1.38-2.06-3.01-2.06-4.89s.69-3.5,2.06-4.85,3.01-2.03,4.89-2.03,3.51.68,4.89,2.03c1.38,1.35,2.06,2.97,2.06,4.85s-.69,3.51-2.06,4.89ZM72.15,53.03V16.81h12.03v36.22h-12.03Z"/>
          <path class="cls-2" d="M132.72,15.79c4.2,0,7.52,1.34,9.96,4.02,2.44,2.68,3.66,6.36,3.66,11.05v22.17h-12.1v-20.79c0-3.38-1.5-5.07-4.49-5.07-1.64,0-2.89.54-3.73,1.63-.85,1.09-1.27,2.57-1.27,4.46v19.78h-12.03v-20.79c0-3.38-1.52-5.07-4.56-5.07-1.64,0-2.89.54-3.73,1.63-.85,1.09-1.27,2.57-1.27,4.46v19.78h-12.03V16.81h12.03v3.4c2.22-2.95,5.48-4.42,9.78-4.42s7.24,1.55,9.27,4.64c2.51-3.09,6.01-4.64,10.5-4.64Z"/>
          <path class="cls-2" d="M178.36,16.81h12.03v36.22h-12.03v-3.33c-2.46,2.9-5.89,4.35-10.29,4.35-4.83,0-8.87-1.82-12.13-5.47-3.26-3.65-4.89-8.2-4.89-13.66s1.63-10.01,4.89-13.66c3.26-3.65,7.3-5.47,12.13-5.47,4.39,0,7.82,1.45,10.29,4.35v-3.33ZM165.24,40.64c1.4,1.45,3.23,2.17,5.51,2.17s4.1-.72,5.51-2.17c1.4-1.45,2.1-3.36,2.1-5.72s-.7-4.27-2.1-5.72c-1.4-1.45-3.24-2.17-5.51-2.17s-4.1.72-5.51,2.17c-1.4,1.45-2.1,3.36-2.1,5.72s.7,4.27,2.1,5.72Z"/>
        </g>
      </g>
    </g>
  </g>
</svg>